<?xml version="1.0" encoding="UTF-8" standalone="no"?>
<!DOCTYPE svg PUBLIC "-//W3C//DTD SVG 1.1//EN" "http://www.w3.org/Graphics/SVG/1.1/DTD/svg11.dtd">
<svg width="100%" height="100%" viewBox="0 0 2800 2137" version="1.1" xmlns="http://www.w3.org/2000/svg" xmlns:xlink="http://www.w3.org/1999/xlink" xml:space="preserve" xmlns:serif="http://www.serif.com/" style="fill-rule:evenodd;clip-rule:evenodd;stroke-linejoin:round;stroke-miterlimit:2;">
    <g transform="matrix(1.31442,0,0,1.31442,-789.021,-1335.77)">
        <path d="M1274.14,2150.58L1045.79,2259.39L1045.79,2641.87L1274.14,2533.06L1274.14,2150.58ZM1195.01,2260.88L1195.01,2498.18L1124.95,2531.56L1124.95,2294.26L1195.01,2260.88ZM1470.72,2056.94L1308.48,2134.22L1308.48,2516.71L1478.55,2435.66L1531.5,2357.53L1531.5,2088.54L1470.72,2056.94ZM1021.77,1953.13L850.271,2034.84L850.271,2117.99L939.682,2075.4L939.682,2313.63L894.193,2335.29L894.193,2286.97L812.1,2326.1L812.1,2449.7L964.091,2377.28L1021.77,2295.22L1021.77,1953.13ZM1452.34,2138.27L1452.34,2375.57L1387.64,2406.4L1387.64,2169.1L1452.34,2138.27ZM1785.14,1907.29L1708.57,1943.76L1708.57,2123.61L1640.96,2102.34L1640.96,1975.96L1564.41,2012.45L1564.41,2170.1L1708.57,2215.44L1708.57,2252.35L1640.96,2284.93L1640.96,2240.44L1564.41,2276.91L1564.41,2394.52L1626.34,2364.62L1626.34,2364.79L1708.57,2325.16L1708.57,2326.31L1785.14,2289.84L1785.14,1907.29ZM2023.29,1793.66L1820.59,1890.24L1820.59,2043.28L1946.27,2079.4L1946.27,2140.24L1897.07,2163.67L1897.07,2117.08L1817.91,2154.81L1817.91,2273.98L2025.43,2175.13L2025.43,2011.42L1899.74,1975.59L1899.74,1925.65L1951.44,1901.02L1951.44,1941.65L2023.29,1907.43L2023.29,1793.66ZM1187.11,1874.36L1048.95,1940.18L1048.95,2228.79L1189.05,2162.06L1189.05,2107.25L1108.67,2145.57L1108.67,2076.07L1183.14,2040.59L1183.14,1986.63L1107.86,2022.49L1107.86,1966.89L1187.11,1929.13L1187.11,1874.36ZM2243.37,1688.8L2060.28,1776.05L2060.28,2158.53L2245.96,2070.06L2245.96,1997.46L2139.44,2048.22L2139.44,1956.11L2238.11,1909.09L2238.11,1837.59L2138.38,1885.09L2138.38,1811.43L2243.37,1761.4L2243.37,1688.8ZM1365.7,1789.29L1212.74,1862.15L1212.74,1977.63L1307.58,2004.88L1307.58,2050.81L1270.45,2068.5L1270.45,2033.34L1210.71,2061.78L1210.71,2151.72L1367.32,2077.13L1367.32,1953.6L1272.46,1926.56L1272.46,1888.88L1311.49,1870.29L1311.49,1900.95L1365.7,1875.13L1365.7,1789.29ZM2730.5,1016.43L2180.91,1183.91L2285.59,1224.03L1813.77,1460.37L1836.04,1384.53L1444.07,1597.95L1497,1636.1L1379.53,1692.54L1395.84,1634.63L1129.22,1775.79L1168.75,1795.39L600.28,2121.97L1273.5,1797.42L1215.28,1772.59L1330.58,1716.68L1310.1,1780.23L1611.84,1635.07L1564.77,1602.18L1726.88,1517.35L1696.07,1592.87L2500.94,1203.56L2405.38,1168.33L2730.5,1016.43ZM2500.89,1566.11L2335.63,1644.85L2274.66,1734.48L2274.66,2056.38L2353.82,2018.67L2353.82,1893L2421.76,1860.63L2421.76,1986.3L2500.89,1948.6L2500.89,1566.11ZM1563.25,1695.14L1393.55,1776L1393.55,1830.78L1449.32,1804.21L1449.32,2038.07L1509.45,2009.41L1509.45,1775.56L1563.25,1749.91L1563.25,1695.14ZM648.293,1922.52L648.293,1943.63L713.818,1912.12L713.818,1951L612.103,1999.91L612.103,1925.76L677.628,1822.6L677.628,1785.11L648.293,1799.22L648.293,1823.38L614.022,1839.86L614.022,1806.81L638.971,1764.82L713.818,1728.83L713.818,1820.75L648.293,1922.52ZM1725.7,1617.74L1587.55,1683.58L1587.55,1972.2L1727.64,1905.44L1727.64,1850.66L1647.28,1888.95L1647.28,1819.46L1721.73,1783.97L1721.73,1730.01L1646.48,1765.89L1646.48,1710.29L1725.7,1672.54L1725.7,1617.74ZM849.254,1663.69L849.254,1855.87L822.386,1898.78L741.234,1937.81L741.234,1745.63L768.376,1702.59L849.254,1663.69ZM1871.73,1548.17L1749.33,1606.48L1749.33,1895.12L1877.67,1833.98L1917.62,1775.02L1917.62,1572.03L1871.73,1548.17ZM813.339,1719.85L777.149,1737.25L777.149,1881.94L813.339,1864.53L813.339,1719.85ZM912.86,1795.29L912.86,1816.4L978.385,1784.88L978.385,1823.76L876.67,1872.68L876.67,1798.53L942.195,1695.37L942.195,1657.88L912.86,1671.99L912.86,1696.15L878.59,1712.63L878.59,1679.58L903.538,1637.59L978.385,1601.6L978.385,1693.52L912.86,1795.29ZM2421.76,1676.42L2421.76,1788.02L2353.82,1820.39L2353.82,1708.8L2421.76,1676.42ZM1106.18,1731.05L1080.43,1774.75L995.631,1819.14L995.631,1750.01L1031.45,1731.26L1031.45,1761.48L1069.24,1741.71L1069.24,1686.01L1051.61,1695.24L1051.61,1656.06L1069.24,1646.83L1069.24,1595.33L1031.45,1615.11L1031.45,1643.38L995.631,1662.13L995.631,1625.46L1023.34,1580.73L1102.82,1539.13L1102.82,1626.17L1078.19,1664.53L1106.18,1649.88L1106.18,1731.05ZM1857.88,1609.57L1857.88,1788.63L1809.04,1811.88L1809.04,1632.83L1857.88,1609.57ZM2096.6,1441.04L1943.64,1513.9L1943.64,1629.41L2038.48,1656.66L2038.48,1702.57L2001.35,1720.26L2001.35,1685.1L1941.63,1713.57L1941.63,1803.51L2098.22,1728.89L2098.22,1605.36L2003.38,1578.32L2003.38,1540.64L2042.4,1522.07L2042.4,1552.71L2096.6,1526.89L2096.6,1441.04ZM1181.03,1653.64L1135.26,1675.45L1135.26,1721.83L1181.03,1700L1181.03,1653.64ZM2303.32,1342.57L2244,1370.83L2187.82,1526.35L2183.87,1528.25L2183.87,1399.48L2124.12,1427.92L2124.12,1716.56L2183.87,1688.1L2183.87,1582.63L2244,1553.98L2244,1659.44L2303.73,1631L2303.73,1471.15L2248.71,1497.37L2303.32,1342.57ZM2502.35,1247.72L2377.65,1307.13L2331.63,1374.78L2331.63,1617.69L2391.37,1589.22L2391.37,1494.4L2442.63,1469.96L2442.63,1564.8L2502.35,1536.36L2502.35,1247.72ZM1181.03,1533.42L1135.26,1555.25L1135.26,1601.6L1181.03,1579.8L1181.03,1533.42ZM2442.63,1330.97L2442.63,1415.2L2391.37,1439.62L2391.37,1355.39L2442.63,1330.97Z" style="fill:rgb(250,221,0);fill-rule:nonzero;"/>
    </g>
</svg>
