<?xml version="1.0" encoding="UTF-8" standalone="no"?>
<!DOCTYPE svg PUBLIC "-//W3C//DTD SVG 1.1//EN" "http://www.w3.org/Graphics/SVG/1.1/DTD/svg11.dtd">
<svg width="100%" height="100%" viewBox="0 0 1000 633" version="1.1" xmlns="http://www.w3.org/2000/svg" xmlns:xlink="http://www.w3.org/1999/xlink" xml:space="preserve" xmlns:serif="http://www.serif.com/" style="fill-rule:evenodd;clip-rule:evenodd;stroke-linejoin:round;stroke-miterlimit:2;">
    <g transform="matrix(0.254846,0,0,0.254846,500,316.464)">
        <g transform="matrix(1,0,0,1,-1860.5,-1122.5)">
            <g transform="matrix(1.14312,0,0,1.14312,-358.312,-696.598)">
                <g transform="matrix(3.14847,0,0,3.14847,459.452,585.607)">
                    <path d="M270.375,629.412L777.631,387.706C778.211,387.429 778.581,386.844 778.581,386.202L778.581,292.254C778.581,291.682 778.287,291.15 777.803,290.844C777.32,290.539 776.713,290.503 776.197,290.749L775.624,291.023L775.624,267.456C775.884,267.154 776.028,266.768 776.028,266.369L776.028,156.567C789.399,147.318 984.907,12.085 984.907,12.085C985.57,11.626 985.81,10.758 985.475,10.023C985.141,9.289 984.329,8.9 983.547,9.099L429.91,150.136C429.194,150.318 428.684,150.949 428.656,151.687C428.627,152.425 429.087,153.093 429.787,153.33L482.761,171.264L408.901,211.48L408.901,161.476C408.901,160.904 408.608,160.372 408.124,160.066C407.64,159.761 407.034,159.725 406.517,159.972L387.597,168.995L387.597,163.111C387.597,162.538 387.302,162.005 386.817,161.7C386.331,161.395 385.723,161.361 385.207,161.609L170.623,264.997C170.328,265.139 170.081,265.365 169.914,265.647L148.26,302.093C148.107,302.35 148.026,302.644 148.026,302.944L148.026,333.866L147.752,334.297C147.583,334.564 147.493,334.874 147.493,335.19L147.493,380.408C135.945,390.333 -44.061,545.032 -44.061,545.032C-44.676,545.56 -44.821,546.455 -44.405,547.151C-43.99,547.847 -43.133,548.143 -42.376,547.852C-42.376,547.852 178.233,463.009 203.061,453.46L203.061,574.511C203.061,575.083 203.355,575.615 203.839,575.921C204.322,576.226 204.929,576.262 205.445,576.016L267.991,546.215L267.991,627.907C267.991,628.479 268.284,629.011 268.768,629.317C269.252,629.622 269.858,629.658 270.375,629.412ZM772.694,265.732C772.434,266.034 772.29,266.419 772.29,266.819L772.29,293.664C772.29,294.236 772.584,294.768 773.068,295.073C773.551,295.378 774.158,295.414 774.674,295.168L775.247,294.895L775.247,385.15L271.324,625.267L271.324,543.574C271.324,543.002 271.031,542.47 270.547,542.165C270.064,541.86 269.457,541.824 268.941,542.07L206.395,571.871L206.395,451.033C206.395,450.484 206.124,449.97 205.672,449.659C205.219,449.349 204.642,449.281 204.13,449.478C204.13,449.478 9.87,524.187 -34.586,541.284C0.519,511.114 150.245,382.438 150.245,382.438C150.614,382.121 150.826,381.659 150.826,381.174L150.826,335.675L151.099,335.244C151.269,334.977 151.359,334.667 151.359,334.351L151.359,303.402L172.523,267.781C182.705,262.876 361.445,176.758 384.263,165.764L384.263,171.636C384.263,172.208 384.557,172.74 385.041,173.046C385.525,173.351 386.131,173.387 386.648,173.14L405.568,164.117L405.568,214.285C405.568,214.873 405.878,215.418 406.383,215.718C406.889,216.018 407.515,216.03 408.032,215.749L487.7,172.37C488.282,172.054 488.62,171.423 488.564,170.763C488.507,170.104 488.065,169.54 487.437,169.328L436.186,151.977L975.385,14.618L773.413,154.323C772.963,154.634 772.694,155.146 772.694,155.693L772.694,265.732Z" style="fill:rgb(0,210,0);fill-opacity:0.2;"/>
                </g>
                <g transform="matrix(3.14847,0,0,3.14847,459.452,585.607)">
                    <path d="M561.865,166.834L547.324,174.118L534.107,163.454C533.583,163.031 532.856,162.965 532.264,163.288L392.235,239.532L392.235,187.889C392.235,187.317 391.941,186.785 391.457,186.48C390.973,186.174 390.367,186.139 389.85,186.385L370.93,195.408L370.93,189.641C370.93,189.068 370.635,188.535 370.15,188.23C369.665,187.925 369.056,187.891 368.54,188.14L182.385,277.83C182.09,277.972 181.843,278.199 181.675,278.48L164.926,306.67C164.773,306.928 164.692,307.222 164.692,307.522L164.692,338.712L164.419,339.142C164.249,339.41 164.159,339.72 164.159,340.036L164.159,388.134L30.183,501.411C29.559,501.939 29.41,502.842 29.831,503.543C30.253,504.244 31.121,504.535 31.88,504.23C31.88,504.23 208.138,433.503 230.334,424.596L230.334,433.816L220.678,438.419C220.098,438.695 219.728,439.281 219.728,439.923L219.728,548.108C219.728,548.68 220.021,549.212 220.505,549.518C220.989,549.823 221.595,549.859 222.112,549.613L284.658,519.812L284.658,601.504C284.658,602.076 284.951,602.608 285.435,602.913C285.918,603.219 286.525,603.255 287.041,603.009L760.964,377.188C761.544,376.911 761.914,376.326 761.914,375.684L761.914,318.664C761.914,318.092 761.62,317.56 761.137,317.254C760.653,316.949 760.046,316.913 759.53,317.159L758.957,317.432L758.957,261.871C759.209,261.579 759.361,261.199 759.361,260.784L759.361,147.589C760.122,147.091 761.409,146.247 763.154,145.103C789.459,127.865 920.982,41.675 920.982,41.675C921.666,41.227 921.923,40.349 921.59,39.602C921.257,38.855 920.43,38.46 919.64,38.67L488.859,153.14C488.093,153.344 487.577,154.058 487.623,154.849C487.67,155.64 488.266,156.289 489.051,156.401L561.865,166.834ZM547.083,177.752L547.112,177.755L547.209,177.752C547.435,177.739 547.656,177.68 547.859,177.578L568.337,167.32C569.008,166.984 569.371,166.241 569.225,165.505C569.079,164.769 568.459,164.222 567.71,164.168L565.797,164.03L497.62,154.261L910.527,44.541L761.327,142.315C758.434,144.211 756.827,145.266 756.827,145.266C756.331,145.568 756.028,146.107 756.028,146.689L756.028,260.784C756.028,261.527 756.514,262.157 757.187,262.371L757.29,262.719C756.37,262.719 755.624,261.973 755.624,261.052L755.624,320.073C755.624,320.645 755.917,321.178 756.401,321.483C756.885,321.788 757.491,321.824 758.008,321.578L758.581,321.305L758.581,374.632C758.58,374.632 287.991,598.864 287.991,598.864L287.991,517.196L286.324,518.838L285.608,515.667L223.062,545.468C223.061,545.468 223.061,440.975 223.061,440.975C223.062,440.975 232.718,436.372 232.718,436.372C233.298,436.096 233.667,435.51 233.667,434.868L233.667,422.131C233.667,421.578 233.392,421.06 232.934,420.75C232.476,420.44 231.893,420.378 231.38,420.584L40.215,497.294L166.901,390.181L165.826,390.574L167.493,388.908L167.493,340.521L167.766,340.09C167.936,339.823 168.026,339.513 168.026,339.196L168.026,307.98L184.284,280.615C193.686,276.085 346.57,202.425 367.597,192.294L367.597,198.049C367.597,198.621 367.89,199.154 368.374,199.459C368.858,199.764 369.464,199.8 369.981,199.554L388.901,190.531L388.901,242.337C388.901,242.925 389.211,243.47 389.717,243.77C390.222,244.07 390.848,244.082 391.365,243.801L532.88,166.747C535.581,168.926 543.778,175.54 545.672,177.068C546.371,177.631 546.949,177.735 547.083,177.752Z" style="fill:rgb(0,210,0);fill-opacity:0.4;"/>
                </g>
                <g transform="matrix(3.14847,0,0,3.14847,459.452,585.607)">
                    <path d="M303.054,240.923L302.514,238.554L194.144,290.669C193.848,290.811 193.601,291.037 193.434,291.32L181.593,311.248C181.44,311.506 181.359,311.8 181.359,312.099L181.359,343.558L181.086,343.988C180.916,344.255 180.826,344.565 180.826,344.882L180.826,396.045L113.108,451.089C112.467,451.61 112.304,452.522 112.726,453.233C113.148,453.943 114.026,454.238 114.791,453.925L247,399.779L247,429.539C247,430.111 247.294,430.643 247.777,430.948C248.261,431.254 248.868,431.29 249.384,431.044L271.843,420.345L271.843,432.493L237.344,448.937C236.764,449.214 236.395,449.799 236.395,450.442L236.395,521.705C236.395,522.277 236.688,522.809 237.172,523.115C237.656,523.42 238.262,523.456 238.778,523.21L301.324,493.409C301.324,493.408 301.324,575.101 301.324,575.101C301.324,575.673 301.618,576.205 302.101,576.51C302.585,576.815 303.192,576.851 303.708,576.605L744.298,366.67C744.878,366.393 745.247,365.808 745.247,365.166L745.247,345.073C745.247,344.501 744.954,343.969 744.47,343.664C743.986,343.359 743.38,343.323 742.863,343.569L742.29,343.842L742.29,253.142C742.542,252.851 742.694,252.471 742.694,252.055L742.694,138.237L853.245,71.278C853.957,70.847 854.241,69.956 853.911,69.192C853.581,68.428 852.738,68.024 851.936,68.247L566.372,147.459C565.591,147.675 565.079,148.423 565.159,149.23C565.239,150.037 565.889,150.669 566.698,150.727L623.113,154.794L545.203,193.821L532.303,183.414C531.779,182.991 531.052,182.925 530.46,183.247L398.289,255.213C397.786,255.487 397.458,256 397.422,256.571C397.386,257.143 397.646,257.693 398.111,258.028L398.128,258.041L375.568,269.986L375.568,214.302C375.568,213.73 375.274,213.198 374.791,212.893C374.307,212.588 373.7,212.552 373.184,212.798L354.263,221.821L354.263,216.15C354.263,215.577 353.969,215.044 353.484,214.739C352.999,214.434 352.391,214.4 351.874,214.648L302.654,238.318L303.376,241.487L303.054,240.923ZM740.566,253.657C739.87,253.457 739.361,252.815 739.361,252.055L739.361,137.298C739.361,136.715 739.666,136.175 740.164,135.873L841.178,74.69L576.548,148.095L629.403,151.906C630.151,151.96 630.771,152.507 630.917,153.243C631.064,153.979 630.7,154.722 630.029,155.058L545.737,197.282C545.154,197.574 544.453,197.499 543.945,197.089L531.077,186.707L402.209,256.873L402.254,256.906C402.722,257.243 402.982,257.798 402.943,258.373C402.903,258.948 402.569,259.461 402.06,259.731L374.681,274.227C374.164,274.5 373.542,274.483 373.042,274.182C372.541,273.88 372.235,273.338 372.235,272.754L372.235,216.944L353.314,225.967C352.798,226.213 352.191,226.177 351.707,225.872C351.224,225.567 350.93,225.035 350.93,224.463L350.93,218.801L304.523,241.118C304.28,241.425 303.996,241.578 303.762,241.653C298.663,244.105 196.042,293.455 196.042,293.455L184.692,312.557L184.692,344.042C184.692,344.359 184.602,344.669 184.433,344.936L184.159,345.366L184.159,396.838C184.159,397.34 183.933,397.815 183.544,398.132L123.951,446.571L248.035,395.753C248.549,395.542 249.135,395.602 249.596,395.911C250.057,396.221 250.334,396.74 250.334,397.295L250.334,426.899L272.793,416.2C273.31,415.954 273.916,415.99 274.4,416.295C274.883,416.601 275.177,417.133 275.177,417.705L275.177,433.545C275.177,434.187 274.807,434.772 274.227,435.049L239.728,451.494L239.728,519.065L302.274,489.264C302.791,489.018 303.397,489.054 303.881,489.359C304.364,489.664 304.658,490.196 304.658,490.768L304.658,572.46L741.914,364.114L741.914,347.714L741.341,347.988C740.825,348.234 740.218,348.198 739.734,347.893C739.25,347.587 738.957,347.055 738.957,346.483L738.957,252.248C738.957,253.168 739.703,253.914 740.624,253.914L740.566,253.657Z" style="fill:rgb(0,210,0);fill-opacity:0.7;"/>
                </g>
                <g transform="matrix(0.874797,0,0,0.874797,551.032,2.0624)">
                    <path d="M1274.14,2150.58L1045.79,2259.39L1045.79,2641.87L1274.14,2533.06L1274.14,2150.58ZM1195.01,2260.88L1195.01,2498.18L1124.95,2531.56L1124.95,2294.26L1195.01,2260.88ZM1470.72,2056.94L1308.48,2134.22L1308.48,2516.71L1478.55,2435.66L1531.5,2357.53L1531.5,2088.54L1470.72,2056.94ZM1021.77,1953.13L850.271,2034.84L850.271,2117.99L939.682,2075.4L939.682,2313.63L894.193,2335.29L894.193,2286.97L812.1,2326.1L812.1,2449.7L964.091,2377.28L1021.77,2295.22L1021.77,1953.13ZM1452.34,2138.27L1452.34,2375.57L1387.64,2406.4L1387.64,2169.1L1452.34,2138.27ZM1785.14,1907.29L1708.57,1943.76L1708.57,2123.61L1640.96,2102.34L1640.96,1975.96L1564.41,2012.45L1564.41,2170.1L1708.57,2215.44L1708.57,2252.35L1640.96,2284.93L1640.96,2240.44L1564.41,2276.91L1564.41,2394.52L1626.34,2364.62L1626.34,2364.79L1708.57,2325.16L1708.57,2326.31L1785.14,2289.84L1785.14,1907.29ZM2023.29,1793.66L1820.59,1890.24L1820.59,2043.28L1946.27,2079.4L1946.27,2140.24L1897.07,2163.67L1897.07,2117.08L1817.91,2154.81L1817.91,2273.98L2025.43,2175.13L2025.43,2011.42L1899.74,1975.59L1899.74,1925.65L1951.44,1901.02L1951.44,1941.65L2023.29,1907.43L2023.29,1793.66ZM1187.11,1874.36L1048.95,1940.18L1048.95,2228.79L1189.05,2162.06L1189.05,2107.25L1108.67,2145.57L1108.67,2076.07L1183.14,2040.59L1183.14,1986.63L1107.86,2022.49L1107.86,1966.89L1187.11,1929.13L1187.11,1874.36ZM2243.37,1688.8L2060.28,1776.05L2060.28,2158.53L2245.96,2070.06L2245.96,1997.46L2139.44,2048.22L2139.44,1956.11L2238.11,1909.09L2238.11,1837.59L2138.38,1885.09L2138.38,1811.43L2243.37,1761.4L2243.37,1688.8ZM1365.7,1789.29L1212.74,1862.15L1212.74,1977.63L1307.58,2004.88L1307.58,2050.81L1270.45,2068.5L1270.45,2033.34L1210.71,2061.78L1210.71,2151.72L1367.32,2077.13L1367.32,1953.6L1272.46,1926.56L1272.46,1888.88L1311.49,1870.29L1311.49,1900.95L1365.7,1875.13L1365.7,1789.29ZM2730.5,1016.43L2180.91,1183.91L2285.59,1224.03L1813.77,1460.37L1836.04,1384.53L1444.07,1597.95L1497,1636.1L1379.53,1692.54L1395.84,1634.63L1129.22,1775.79L1168.75,1795.39L600.28,2121.97L1273.5,1797.42L1215.28,1772.59L1330.58,1716.68L1310.1,1780.23L1611.84,1635.07L1564.77,1602.18L1726.88,1517.35L1696.07,1592.87L2500.94,1203.56L2405.38,1168.33L2730.5,1016.43ZM2500.89,1566.11L2335.63,1644.85L2274.66,1734.48L2274.66,2056.38L2353.82,2018.67L2353.82,1893L2421.76,1860.63L2421.76,1986.3L2500.89,1948.6L2500.89,1566.11ZM1563.25,1695.14L1393.55,1776L1393.55,1830.78L1449.32,1804.21L1449.32,2038.07L1509.45,2009.41L1509.45,1775.56L1563.25,1749.91L1563.25,1695.14ZM648.293,1922.52L648.293,1943.63L713.818,1912.12L713.818,1951L612.103,1999.91L612.103,1925.76L677.628,1822.6L677.628,1785.11L648.293,1799.22L648.293,1823.38L614.022,1839.86L614.022,1806.81L638.971,1764.82L713.818,1728.83L713.818,1820.75L648.293,1922.52ZM1725.7,1617.74L1587.55,1683.58L1587.55,1972.2L1727.64,1905.44L1727.64,1850.66L1647.28,1888.95L1647.28,1819.46L1721.73,1783.97L1721.73,1730.01L1646.48,1765.89L1646.48,1710.29L1725.7,1672.54L1725.7,1617.74ZM849.254,1663.69L849.254,1855.87L822.386,1898.78L741.234,1937.81L741.234,1745.63L768.376,1702.59L849.254,1663.69ZM1871.73,1548.17L1749.33,1606.48L1749.33,1895.12L1877.67,1833.98L1917.62,1775.02L1917.62,1572.03L1871.73,1548.17ZM813.339,1719.85L777.149,1737.25L777.149,1881.94L813.339,1864.53L813.339,1719.85ZM912.86,1795.29L912.86,1816.4L978.385,1784.88L978.385,1823.76L876.67,1872.68L876.67,1798.53L942.195,1695.37L942.195,1657.88L912.86,1671.99L912.86,1696.15L878.59,1712.63L878.59,1679.58L903.538,1637.59L978.385,1601.6L978.385,1693.52L912.86,1795.29ZM2421.76,1676.42L2421.76,1788.02L2353.82,1820.39L2353.82,1708.8L2421.76,1676.42ZM1106.18,1731.05L1080.43,1774.75L995.631,1819.14L995.631,1750.01L1031.45,1731.26L1031.45,1761.48L1069.24,1741.71L1069.24,1686.01L1051.61,1695.24L1051.61,1656.06L1069.24,1646.83L1069.24,1595.33L1031.45,1615.11L1031.45,1643.38L995.631,1662.13L995.631,1625.46L1023.34,1580.73L1102.82,1539.13L1102.82,1626.17L1078.19,1664.53L1106.18,1649.88L1106.18,1731.05ZM1857.88,1609.57L1857.88,1788.63L1809.04,1811.88L1809.04,1632.83L1857.88,1609.57ZM2096.6,1441.04L1943.64,1513.9L1943.64,1629.41L2038.48,1656.66L2038.48,1702.57L2001.35,1720.26L2001.35,1685.1L1941.63,1713.57L1941.63,1803.51L2098.22,1728.89L2098.22,1605.36L2003.38,1578.32L2003.38,1540.64L2042.4,1522.07L2042.4,1552.71L2096.6,1526.89L2096.6,1441.04ZM1181.03,1653.64L1135.26,1675.45L1135.26,1721.83L1181.03,1700L1181.03,1653.64ZM2303.32,1342.57L2244,1370.83L2187.82,1526.35L2183.87,1528.25L2183.87,1399.48L2124.12,1427.92L2124.12,1716.56L2183.87,1688.1L2183.87,1582.63L2244,1553.98L2244,1659.44L2303.73,1631L2303.73,1471.15L2248.71,1497.37L2303.32,1342.57ZM2502.35,1247.72L2377.65,1307.13L2331.63,1374.78L2331.63,1617.69L2391.37,1589.22L2391.37,1494.4L2442.63,1469.96L2442.63,1564.8L2502.35,1536.36L2502.35,1247.72ZM1181.03,1533.42L1135.26,1555.25L1135.26,1601.6L1181.03,1579.8L1181.03,1533.42ZM2442.63,1330.97L2442.63,1415.2L2391.37,1439.62L2391.37,1355.39L2442.63,1330.97Z" style="fill:rgb(0,210,0);fill-rule:nonzero;"/>
                </g>
            </g>
        </g>
    </g>
</svg>
